<svg width="127" height="36" viewBox="0 0 127 36" fill="none" xmlns="http://www.w3.org/2000/svg">
<path d="M18.425 8.92C17.865 7.89333 17.095 7.11167 16.115 6.575C15.135 6.03833 13.9917 5.77 12.685 5.77C11.2383 5.77 9.955 6.09667 8.835 6.75C7.715 7.40333 6.84 8.33667 6.21 9.55C5.58 10.7633 5.265 12.1633 5.265 13.75C5.265 15.3833 5.58 16.8067 6.21 18.02C6.86333 19.2333 7.76167 20.1667 8.905 20.82C10.0483 21.4733 11.3783 21.8 12.895 21.8C14.7617 21.8 16.29 21.31 17.48 20.33C18.67 19.3267 19.4517 17.9383 19.825 16.165H11.425V12.42H24.655V16.69C24.3283 18.3933 23.6283 19.9683 22.555 21.415C21.4817 22.8617 20.0933 24.0283 18.39 24.915C16.71 25.7783 14.82 26.21 12.72 26.21C10.3633 26.21 8.22833 25.685 6.315 24.635C4.425 23.5617 2.93167 22.08 1.835 20.19C0.761667 18.3 0.225 16.1533 0.225 13.75C0.225 11.3467 0.761667 9.2 1.835 7.31C2.93167 5.39666 4.425 3.915 6.315 2.865C8.22833 1.79167 10.3517 1.255 12.685 1.255C15.4383 1.255 17.83 1.93167 19.86 3.285C21.89 4.615 23.29 6.49333 24.06 8.92H18.425ZM33.1802 0.0999997V26H28.2802V0.0999997H33.1802ZM36.7614 16.235C36.7614 14.275 37.1464 12.5367 37.9164 11.02C38.7098 9.50333 39.7714 8.33667 41.1014 7.52C42.4548 6.70333 43.9598 6.295 45.6164 6.295C47.0631 6.295 48.3231 6.58667 49.3964 7.17C50.4931 7.75333 51.3681 8.48833 52.0214 9.375V6.61H56.9564V26H52.0214V23.165C51.3914 24.075 50.5164 24.8333 49.3964 25.44C48.2998 26.0233 47.0281 26.315 45.5814 26.315C43.9481 26.315 42.4548 25.895 41.1014 25.055C39.7714 24.215 38.7098 23.0367 37.9164 21.52C37.1464 19.98 36.7614 18.2183 36.7614 16.235ZM52.0214 16.305C52.0214 15.115 51.7881 14.1 51.3214 13.26C50.8548 12.3967 50.2248 11.7433 49.4314 11.3C48.6381 10.8333 47.7864 10.6 46.8764 10.6C45.9664 10.6 45.1264 10.8217 44.3564 11.265C43.5864 11.7083 42.9564 12.3617 42.4664 13.225C41.9998 14.065 41.7664 15.0683 41.7664 16.235C41.7664 17.4017 41.9998 18.4283 42.4664 19.315C42.9564 20.1783 43.5864 20.8433 44.3564 21.31C45.1498 21.7767 45.9898 22.01 46.8764 22.01C47.7864 22.01 48.6381 21.7883 49.4314 21.345C50.2248 20.8783 50.8548 20.225 51.3214 19.385C51.7881 18.5217 52.0214 17.495 52.0214 16.305ZM66.2221 21.975H74.8671V26H60.6571V22.045L69.1271 10.635H60.6921V6.61H74.7621V10.565L66.2221 21.975ZM96.6861 15.885C96.6861 16.585 96.6394 17.215 96.5461 17.775H82.3711C82.4878 19.175 82.9778 20.2717 83.8411 21.065C84.7044 21.8583 85.7661 22.255 87.0261 22.255C88.8461 22.255 90.1411 21.4733 90.9111 19.91H96.1961C95.6361 21.7767 94.5628 23.3167 92.9761 24.53C91.3894 25.72 89.4411 26.315 87.1311 26.315C85.2644 26.315 83.5844 25.9067 82.0911 25.09C80.6211 24.25 79.4661 23.0717 78.6261 21.555C77.8094 20.0383 77.4011 18.2883 77.4011 16.305C77.4011 14.2983 77.8094 12.5367 78.6261 11.02C79.4428 9.50333 80.5861 8.33667 82.0561 7.52C83.5261 6.70333 85.2178 6.295 87.1311 6.295C88.9744 6.295 90.6194 6.69167 92.0661 7.485C93.5361 8.27833 94.6678 9.41 95.4611 10.88C96.2778 12.3267 96.6861 13.995 96.6861 15.885ZM91.6111 14.485C91.5878 13.225 91.1328 12.2217 90.2461 11.475C89.3594 10.705 88.2744 10.32 86.9911 10.32C85.7778 10.32 84.7511 10.6933 83.9111 11.44C83.0944 12.1633 82.5928 13.1783 82.4061 14.485H91.6111ZM118.813 6.61L106.808 35.17H101.593L105.793 25.51L98.0227 6.61H103.518L108.523 20.155L113.598 6.61H118.813Z" fill="#2A353A"/>
<path d="M123.624 26.245C122.737 26.245 122.002 25.9767 121.419 25.44C120.859 24.88 120.579 24.1917 120.579 23.375C120.579 22.5583 120.859 21.8817 121.419 21.345C122.002 20.785 122.737 20.505 123.624 20.505C124.487 20.505 125.199 20.785 125.759 21.345C126.319 21.8817 126.599 22.5583 126.599 23.375C126.599 24.1917 126.319 24.88 125.759 25.44C125.199 25.9767 124.487 26.245 123.624 26.245Z" fill="#01A3FF"/>
</svg>
