<svg width="24" height="24" viewBox="0 0 512 512" fill="none" xmlns="http://www.w3.org/2000/svg">
<g clip-path="url(#clip0_201_2)">
<path d="M316.48 42.8H76.08C75.1252 42.8 74.2096 43.1793 73.5344 43.8545C72.8593 44.5296 72.48 45.4453 72.48 46.4001V128C72.48 128.955 72.8593 129.87 73.5344 130.546C74.2096 131.221 75.1252 131.6 76.08 131.6H316.48C317.421 131.579 318.316 131.191 318.974 130.518C319.632 129.845 320 128.941 320 128V46.4001C320 45.459 319.632 44.5552 318.974 43.8823C318.316 43.2095 317.421 42.821 316.48 42.8ZM312.88 124.48H80V50H312.88V124.48Z" fill="#010101"/>
<path d="M398.56 270.72C385.974 270.756 373.483 272.892 361.6 277.04V32.88C361.6 27.9788 359.653 23.2783 356.187 19.8127C352.722 16.347 348.021 14.4 343.12 14.4H34.48C29.9243 14.3239 25.3999 15.1665 21.177 16.8774C16.9541 18.5883 13.1191 21.1325 9.90103 24.358C6.68294 27.5836 4.14768 31.4244 2.44658 35.6513C0.745473 39.8782 -0.0866093 44.4045 -5.80819e-06 48.96V375.52C-5.80819e-06 388.25 5.05712 400.459 14.0589 409.461C23.0606 418.463 35.2696 423.52 48 423.52H292.4C299.606 442.939 311.995 460.012 328.222 472.886C344.448 485.759 363.892 493.941 384.44 496.542C404.989 499.144 425.858 496.065 444.781 487.642C463.703 479.218 479.956 465.77 491.774 448.76C503.593 431.75 510.524 411.826 511.817 391.154C513.109 370.481 508.713 349.85 499.106 331.5C489.499 313.15 475.047 297.783 457.322 287.068C439.596 276.352 419.273 270.698 398.56 270.72ZM38.16 21.68H343.12C346.098 21.6799 348.955 22.8574 351.068 24.9555C353.181 27.0536 354.379 29.9022 354.4 32.88V280C331.829 289.636 312.974 306.303 300.64 327.52H48C44.5779 327.591 41.1727 328.02 37.84 328.8L38.16 21.68ZM7.19999 49.04C7.27999 48 7.99999 24 30.96 21.84V330.48C24.6504 332.834 18.9208 336.517 14.16 341.28C11.5033 343.989 9.16789 346.996 7.19999 350.24V49.04ZM48 416.56C37.8862 416.36 28.2041 412.425 20.8188 405.512C13.4335 398.6 8.86734 389.198 7.99999 379.12H219.04C219.995 379.12 220.91 378.741 221.586 378.066C222.261 377.39 222.64 376.475 222.64 375.52C222.64 374.565 222.261 373.65 221.586 372.974C220.91 372.299 219.995 371.92 219.04 371.92H7.99999C8.65078 362.354 12.6435 353.321 19.28 346.4C23.8972 341.84 29.5118 338.416 35.68 336.4C39.6674 335.137 43.8179 334.463 48 334.4H296.8C284.143 359.916 281.683 389.295 289.92 416.56H48ZM398.56 490.4C377.555 490.4 357.02 484.173 339.553 472.506C322.085 460.84 308.468 444.257 300.422 424.853C292.377 405.45 290.263 384.097 294.35 363.492C298.436 342.888 308.539 323.958 323.381 309.094C338.223 294.229 357.138 284.098 377.736 279.981C398.334 275.864 419.69 277.945 439.106 285.961C458.521 293.978 475.125 307.57 486.818 325.02C498.511 342.47 504.768 362.995 504.8 384C504.8 412.191 493.612 439.23 473.693 459.18C453.773 479.129 426.751 490.358 398.56 490.4Z" fill="#010101"/>
<path d="M285.12 384C285.155 394.843 286.772 405.624 289.92 416H48C37.9741 415.815 28.3644 411.958 20.9922 405.161C13.6199 398.363 8.99713 389.098 8 379.12H219.04C219.995 379.12 220.91 378.741 221.586 378.066C222.261 377.39 222.64 376.475 222.64 375.52C222.64 374.565 222.261 373.65 221.586 372.974C220.91 372.299 219.995 371.92 219.04 371.92H8C8.65079 362.354 12.6435 353.321 19.28 346.4C23.8972 341.84 29.5118 338.416 35.68 336.4C39.6674 335.137 43.8179 334.463 48 334.4H296.8C289.147 349.816 285.151 366.789 285.12 384Z" fill="#D7D6D6"/>
<path d="M30.96 21.84V330.48C24.6504 332.834 18.9208 336.517 14.16 341.28C11.5033 343.989 9.16791 346.996 7.20001 350.24V49.04C7.28001 48 8.00001 24 30.96 21.84Z" fill="#01A3FF"/>
<path d="M398.56 277.92C377.541 277.92 356.994 284.155 339.52 295.836C322.045 307.517 308.428 324.119 300.392 343.541C292.355 362.963 290.261 384.332 294.373 404.945C298.486 425.558 308.62 444.488 323.494 459.34C338.368 474.191 357.313 484.297 377.932 488.378C398.551 492.459 419.917 490.333 439.327 482.267C458.737 474.201 475.319 460.559 486.973 443.067C498.628 425.575 504.832 405.019 504.8 384C504.715 355.864 493.49 328.907 473.58 309.027C453.67 289.147 426.696 277.962 398.56 277.92ZM398.56 477.92H389.68C380.173 477.054 370.861 474.705 362.08 470.96C347.658 464.863 335.002 455.234 325.28 442.96C311.937 426.223 304.762 405.404 304.96 384C304.919 359.911 314.168 336.734 330.781 319.29C347.394 301.847 370.093 291.48 394.155 290.346C418.218 289.213 441.79 297.4 459.97 313.204C478.149 329.009 489.536 351.214 491.76 375.2C492.064 378.123 492.198 381.061 492.16 384C492.16 408.839 482.304 432.663 464.755 450.242C447.206 467.821 423.399 477.718 398.56 477.76V477.92Z" fill="#01A3FF"/>
<path d="M343.12 21.6801H38.16V328.48C41.3883 327.722 44.6852 327.293 48 327.2H300.64C313.027 306.102 331.877 289.552 354.4 280V32.8801C354.379 29.9023 353.181 27.0537 351.068 24.9556C348.955 22.8574 346.098 21.68 343.12 21.6801ZM320 128C320 128.955 319.621 129.871 318.946 130.546C318.27 131.221 317.355 131.6 316.4 131.6H76.08C75.1252 131.6 74.2096 131.221 73.5344 130.546C72.8593 129.871 72.48 128.955 72.48 128V46.4001C72.48 45.4453 72.8593 44.5296 73.5344 43.8545C74.2096 43.1793 75.1252 42.8001 76.08 42.8001H316.48C317.421 42.821 318.316 43.2095 318.974 43.8823C319.632 44.5552 320 45.459 320 46.4001V128Z" fill="#01A3FF"/>
<path d="M79.68 50H312.88V124.48H79.68V50Z" fill="#9568FF"/>
<path d="M491.76 375.36C489.537 351.388 478.162 329.195 460 313.392C441.838 297.589 418.285 289.392 394.235 290.504C370.186 291.616 347.49 301.953 330.864 319.364C314.239 336.776 304.961 359.925 304.96 384C304.931 402.422 310.334 420.444 320.494 435.812C330.653 451.179 345.118 463.21 362.08 470.4C370.861 474.145 380.173 476.494 389.68 477.36H398.56C423.33 477.318 447.077 467.476 464.614 449.984C482.151 432.491 492.054 408.77 492.16 384C492.191 381.115 492.058 378.23 491.76 375.36ZM398.56 470.56C395.896 470.713 393.224 470.713 390.56 470.56C379.004 469.52 367.779 466.148 357.562 460.648C347.346 455.148 338.351 447.634 331.12 438.56C326.226 432.545 322.212 425.865 319.2 418.72C313.679 405.59 311.487 391.299 312.818 377.117C314.149 362.936 318.963 349.303 326.831 337.429C334.699 325.556 345.378 315.809 357.92 309.056C370.461 302.304 384.476 298.753 398.72 298.72C410.34 298.711 421.845 301.023 432.56 305.52C439.718 308.59 446.42 312.628 452.48 317.52C463.814 326.488 472.724 338.148 478.4 351.44C481.672 359.272 483.749 367.551 484.56 376C484.713 378.664 484.713 381.336 484.56 384C484.582 406.867 475.546 428.811 459.429 445.033C443.312 461.255 421.427 470.433 398.56 470.56Z" fill="#010101"/>
<path d="M484.56 376C483.794 367.216 481.662 358.606 478.24 350.48C472.564 337.188 463.654 325.528 452.32 316.56C446.26 311.668 439.558 307.63 432.4 304.56C419.254 298.998 404.938 296.77 390.724 298.074C376.51 299.378 362.838 304.174 350.924 312.034C339.01 319.895 329.223 330.578 322.432 343.133C315.641 355.688 312.058 369.726 312 384C311.98 395.629 314.32 407.142 318.88 417.84C321.892 424.985 325.906 431.665 330.8 437.68C338.031 446.754 347.026 454.268 357.242 459.768C367.459 465.268 378.684 468.64 390.24 469.68C392.904 469.833 395.576 469.833 398.24 469.68C421.08 469.744 443.017 460.771 459.264 444.719C475.511 428.666 484.749 406.839 484.96 384C484.98 381.328 484.847 378.657 484.56 376ZM407.28 435.44V444.88C407.28 445.835 406.901 446.75 406.226 447.426C405.55 448.101 404.635 448.48 403.68 448.48C402.725 448.48 401.81 448.101 401.134 447.426C400.459 446.75 400.08 445.835 400.08 444.88V435.52H389.52V444.88C389.52 445.835 389.141 446.75 388.466 447.426C387.79 448.101 386.875 448.48 385.92 448.48C384.965 448.48 384.05 448.101 383.374 447.426C382.699 446.75 382.32 445.835 382.32 444.88V435.52H367.52C366.565 435.52 365.65 435.141 364.974 434.466C364.299 433.79 363.92 432.875 363.92 431.92C363.92 430.965 364.299 430.05 364.974 429.374C365.65 428.699 366.565 428.32 367.52 428.32H372.72V340.32H367.52C366.647 340.19 365.85 339.751 365.274 339.083C364.698 338.415 364.381 337.562 364.381 336.68C364.381 335.798 364.698 334.945 365.274 334.277C365.85 333.609 366.647 333.17 367.52 333.04H382.32V323.44C382.32 322.485 382.699 321.57 383.374 320.894C384.05 320.219 384.965 319.84 385.92 319.84C386.875 319.84 387.79 320.219 388.466 320.894C389.141 321.57 389.52 322.485 389.52 323.44V332.72H400V323.44C400 322.485 400.379 321.57 401.054 320.894C401.73 320.219 402.645 319.84 403.6 319.84C404.555 319.84 405.47 320.219 406.146 320.894C406.821 321.57 407.2 322.485 407.2 323.44V333.52C412.359 334.739 417.057 337.423 420.727 341.248C424.398 345.073 426.886 349.877 427.891 355.082C428.897 360.288 428.377 365.672 426.396 370.59C424.414 375.507 421.054 379.747 416.72 382.8C422.365 385.297 427.006 389.619 429.898 395.072C432.79 400.525 433.766 406.791 432.667 412.865C431.569 418.939 428.46 424.467 423.842 428.561C419.223 432.655 413.362 435.078 407.2 435.44H407.28Z" fill="#9568FF"/>
<path d="M416.8 382.8C421.134 379.747 424.494 375.507 426.476 370.59C428.457 365.672 428.977 360.288 427.971 355.082C426.966 349.877 424.478 345.073 420.807 341.248C417.137 337.423 412.439 334.739 407.28 333.52V323.44C407.28 322.967 407.187 322.499 407.006 322.062C406.825 321.626 406.56 321.229 406.226 320.894C405.891 320.56 405.494 320.295 405.058 320.114C404.621 319.933 404.153 319.84 403.68 319.84C403.207 319.84 402.739 319.933 402.302 320.114C401.866 320.295 401.469 320.56 401.134 320.894C400.8 321.229 400.535 321.626 400.354 322.062C400.173 322.499 400.08 322.967 400.08 323.44V332.72H389.52V323.44C389.52 322.485 389.141 321.57 388.466 320.894C387.79 320.219 386.875 319.84 385.92 319.84C384.965 319.84 384.05 320.219 383.374 320.894C382.699 321.57 382.32 322.485 382.32 323.44V332.72H367.52C366.647 332.85 365.85 333.289 365.274 333.957C364.698 334.625 364.381 335.478 364.381 336.36C364.381 337.242 364.698 338.095 365.274 338.763C365.85 339.431 366.647 339.87 367.52 340H372.72V428H367.52C366.565 428 365.65 428.379 364.974 429.054C364.299 429.73 363.92 430.645 363.92 431.6C363.92 432.555 364.299 433.47 364.974 434.146C365.65 434.821 366.565 435.2 367.52 435.2H382.32V444.56C382.32 445.515 382.699 446.43 383.374 447.106C384.05 447.781 384.965 448.16 385.92 448.16C386.875 448.16 387.79 447.781 388.466 447.106C389.141 446.43 389.52 445.515 389.52 444.56V435.52H400V444.88C400 445.835 400.379 446.75 401.054 447.426C401.73 448.101 402.645 448.48 403.6 448.48C404.555 448.48 405.47 448.101 406.146 447.426C406.821 446.75 407.2 445.835 407.2 444.88V435.44C413.362 435.078 419.223 432.655 423.842 428.561C428.46 424.467 431.569 418.939 432.667 412.865C433.766 406.791 432.79 400.524 429.898 395.072C427.006 389.619 422.365 385.297 416.72 382.8H416.8ZM379.92 340H401.28C406.438 340.324 411.279 342.602 414.818 346.369C418.356 350.137 420.326 355.111 420.326 360.28C420.326 365.449 418.356 370.423 414.818 374.191C411.279 377.958 406.438 380.236 401.28 380.56H379.92V340ZM406 428H379.92V387.76H406C411.158 388.084 415.999 390.362 419.538 394.129C423.076 397.897 425.046 402.871 425.046 408.04C425.046 413.209 423.076 418.183 419.538 421.951C415.999 425.718 411.158 427.996 406 428.32V428Z" fill="#010101"/>
<path d="M421.28 360C421.301 362.647 420.801 365.273 419.807 367.727C418.813 370.181 417.346 372.415 415.489 374.302C413.631 376.189 411.421 377.692 408.983 378.724C406.545 379.757 403.927 380.299 401.28 380.32H379.92V340H401.28C406.578 340.021 411.653 342.135 415.399 345.881C419.145 349.627 421.259 354.702 421.28 360ZM426.08 408C426.08 413.34 423.97 418.464 420.209 422.256C416.447 426.047 411.34 428.198 406 428.24H379.92V387.76H406C411.34 387.802 416.447 389.953 420.209 393.744C423.97 397.536 426.08 402.66 426.08 408Z" fill="#9568FF"/>
</g>
<defs>
<clipPath id="clip0_201_2">
<rect width="512" height="512" fill="white"/>
</clipPath>
</defs>
</svg>
